<svg xmlns="http://www.w3.org/2000/svg" xmlns:xlink="http://www.w3.org/1999/xlink" width="500" zoomAndPan="magnify" viewBox="0 0 375 374.999991" height="500" preserveAspectRatio="xMidYMid meet" version="1.0"><defs><g/><clipPath id="b13fc8a770"><path d="M 111.449219 203 L 177 203 L 177 253 L 111.449219 253 Z M 111.449219 203 " clip-rule="nonzero"/></clipPath><clipPath id="19da3c9e42"><path d="M 182 75.214844 L 189 75.214844 L 189 270.214844 L 182 270.214844 Z M 182 75.214844 " clip-rule="nonzero"/></clipPath><clipPath id="33353bbe81"><path d="M 193 92 L 263.699219 92 L 263.699219 254 L 193 254 Z M 193 92 " clip-rule="nonzero"/></clipPath></defs><path fill="#b95ae1" d="M 176.308594 182.03125 L 176.308594 155.875 C 159.730469 153.648438 146.136719 149.65625 146.136719 137.351562 C 146.136719 126.339844 155.929688 117.625 176.308594 117.328125 L 176.308594 92.539062 C 148.570312 92.816406 118.128906 105.539062 118.128906 136.488281 C 118.128906 169.921875 145.914062 178.304688 176.308594 182.03125 Z M 176.308594 182.03125 " fill-opacity="1" fill-rule="nonzero"/><g clip-path="url(#b13fc8a770)"><path fill="#b95ae1" d="M 176.308594 226.964844 C 158.472656 226.628906 141.671875 219.265625 135.148438 203.066406 L 111.449219 215.347656 C 122.550781 242.664062 145.917969 252.21875 176.308594 252.394531 Z M 176.308594 226.964844 " fill-opacity="1" fill-rule="nonzero"/></g><g clip-path="url(#19da3c9e42)"><path fill="#b95ae1" d="M 182.574219 75.234375 L 188.839844 75.234375 L 188.839844 270.1875 L 182.574219 270.1875 Z M 182.574219 75.234375 " fill-opacity="1" fill-rule="nonzero"/></g><g clip-path="url(#33353bbe81)"><path fill="#61008b" d="M 233.558594 92.847656 L 233.558594 160.351562 L 193.203125 160.351562 L 193.203125 188.265625 L 233.558594 188.265625 L 233.558594 253.023438 L 263.535156 253.023438 L 263.535156 92.847656 Z M 233.558594 92.847656 " fill-opacity="1" fill-rule="nonzero"/></g><g fill="#61008b" fill-opacity="1"><g transform="translate(100.288468, 293.999042)"><g><path d="M 9.140625 0.34375 C 13.574219 0.34375 16.164062 -1.898438 16.164062 -5.445312 C 16.164062 -9.707031 12.441406 -10.542969 9.3125 -11.234375 C 7.023438 -11.753906 5 -12.195312 5 -13.921875 C 5 -15.347656 6.28125 -16.113281 8.054688 -16.113281 C 9.976562 -16.113281 11.578125 -15.203125 12.046875 -13.207031 L 15.667969 -13.207031 C 15.078125 -17.269531 11.753906 -19.144531 8.128906 -19.144531 C 4.335938 -19.144531 1.476562 -17.246094 1.476562 -13.625 C 1.476562 -9.65625 4.976562 -8.894531 8.054688 -8.203125 C 10.445312 -7.6875 12.589844 -7.21875 12.589844 -5.273438 C 12.589844 -3.472656 11.113281 -2.683594 9.164062 -2.683594 C 7.195312 -2.683594 5.148438 -3.425781 4.535156 -6.109375 L 0.863281 -6.109375 C 1.332031 -1.257812 5.519531 0.34375 9.140625 0.34375 Z M 9.140625 0.34375 "/></g></g></g><g fill="#61008b" fill-opacity="1"><g transform="translate(117.432941, 293.999042)"><g><path d="M 5.222656 0 L 5.222656 -7.835938 L 13.28125 -7.835938 L 13.28125 0 L 16.828125 0 L 16.828125 -18.796875 L 13.28125 -18.796875 L 13.28125 -11.011719 L 5.222656 -11.011719 L 5.222656 -18.796875 L 1.675781 -18.796875 L 1.675781 0 Z M 5.222656 0 "/></g></g></g><g fill="#61008b" fill-opacity="1"><g transform="translate(135.956862, 293.999042)"><g><path d="M 3.894531 0 L 5.148438 -3.867188 L 12.320312 -3.867188 L 13.601562 0 L 17.320312 0 L 10.691406 -18.796875 L 6.800781 -18.796875 L 0.171875 0 Z M 8.746094 -14.929688 L 11.332031 -6.972656 L 6.160156 -6.972656 Z M 8.746094 -14.929688 "/></g></g></g><g fill="#61008b" fill-opacity="1"><g transform="translate(153.446202, 293.999042)"><g><path d="M 5.222656 0 L 5.222656 -13.476562 L 12.910156 0 L 16.925781 0 L 16.925781 -18.796875 L 13.378906 -18.796875 L 13.378906 -5.347656 L 5.667969 -18.796875 L 1.675781 -18.796875 L 1.675781 0 Z M 5.222656 0 "/></g></g></g><g fill="#61008b" fill-opacity="1"><g transform="translate(178.645622, 293.999042)"><g><path d="M 7.144531 0 C 13.476562 0 16.976562 -3.375 16.976562 -9.386719 C 16.976562 -15.421875 13.5 -18.796875 7.144531 -18.796875 L 1.675781 -18.796875 L 1.675781 0 Z M 5.222656 -15.621094 L 7.121094 -15.621094 C 10.914062 -15.621094 13.425781 -13.746094 13.425781 -9.386719 C 13.425781 -4.730469 10.839844 -3.179688 7.09375 -3.179688 L 5.222656 -3.179688 Z M 5.222656 -15.621094 "/></g></g></g><g fill="#61008b" fill-opacity="1"><g transform="translate(196.578352, 293.999042)"><g><path d="M 14.214844 0 L 14.214844 -3.179688 L 5.222656 -3.179688 L 5.222656 -7.835938 L 13.28125 -7.835938 L 13.28125 -10.988281 L 5.222656 -10.988281 L 5.222656 -15.621094 L 14.214844 -15.621094 L 14.214844 -18.796875 L 1.675781 -18.796875 L 1.675781 0 Z M 14.214844 0 "/></g></g></g><g fill="#61008b" fill-opacity="1"><g transform="translate(211.87536, 293.999042)"><g><path d="M 9.140625 0.34375 C 13.574219 0.34375 16.164062 -1.898438 16.164062 -5.445312 C 16.164062 -9.707031 12.441406 -10.542969 9.3125 -11.234375 C 7.023438 -11.753906 5 -12.195312 5 -13.921875 C 5 -15.347656 6.28125 -16.113281 8.054688 -16.113281 C 9.976562 -16.113281 11.578125 -15.203125 12.046875 -13.207031 L 15.667969 -13.207031 C 15.078125 -17.269531 11.753906 -19.144531 8.128906 -19.144531 C 4.335938 -19.144531 1.476562 -17.246094 1.476562 -13.625 C 1.476562 -9.65625 4.976562 -8.894531 8.054688 -8.203125 C 10.445312 -7.6875 12.589844 -7.21875 12.589844 -5.273438 C 12.589844 -3.472656 11.113281 -2.683594 9.164062 -2.683594 C 7.195312 -2.683594 5.148438 -3.425781 4.535156 -6.109375 L 0.863281 -6.109375 C 1.332031 -1.257812 5.519531 0.34375 9.140625 0.34375 Z M 9.140625 0.34375 "/></g></g></g><g fill="#61008b" fill-opacity="1"><g transform="translate(229.019833, 293.999042)"><g><path d="M 5.222656 0 L 5.222656 -18.796875 L 1.675781 -18.796875 L 1.675781 0 Z M 5.222656 0 "/></g></g></g><g fill="#61008b" fill-opacity="1"><g transform="translate(235.917038, 293.999042)"><g><path d="M 10.125 0.34375 C 12.121094 0.34375 14.289062 -0.246094 15.59375 -2.117188 L 15.59375 0 L 18.824219 0 L 18.824219 -10.222656 L 11.136719 -10.222656 L 11.136719 -7.292969 L 15.300781 -7.292969 C 15.226562 -4.335938 13.378906 -2.832031 10.421875 -2.832031 C 6.578125 -2.832031 4.65625 -5.640625 4.65625 -9.4375 C 4.65625 -13.105469 6.503906 -15.964844 10.101562 -15.964844 C 12.589844 -15.964844 14.140625 -14.855469 14.757812 -12.910156 L 18.652344 -12.910156 C 17.886719 -16.628906 14.980469 -19.144531 10.125 -19.144531 C 3.820312 -19.144531 0.960938 -14.535156 0.960938 -9.410156 C 0.960938 -4.285156 3.820312 0.34375 10.125 0.34375 Z M 10.125 0.34375 "/></g></g></g><g fill="#61008b" fill-opacity="1"><g transform="translate(256.091357, 293.999042)"><g><path d="M 5.222656 0 L 5.222656 -13.476562 L 12.910156 0 L 16.925781 0 L 16.925781 -18.796875 L 13.378906 -18.796875 L 13.378906 -5.347656 L 5.667969 -18.796875 L 1.675781 -18.796875 L 1.675781 0 Z M 5.222656 0 "/></g></g></g></svg>